# Blender v2.79 (sub 0) OBJ File: ''
# www.blender.org
mtllib axe.mtl
o Cube.001_Cube.002
v 1.976455 -0.003296 3.747647
v 1.976455 0.003296 3.747647
v 1.195090 -0.003296 -0.034876
v 1.195090 0.003296 -0.034876
v 2.110898 -0.003296 3.235225
v 2.128502 -0.003296 2.979250
v 2.128502 -0.003296 2.723274
v 2.128502 -0.003296 2.467299
v 2.128502 -0.003296 2.211323
v 2.110898 -0.003296 1.955348
v 1.845570 -0.003296 1.142486
v 1.845570 0.003296 1.142486
v 2.110898 0.003296 1.955348
v 2.128502 0.003296 2.211323
v 2.128502 0.003296 2.467299
v 2.128502 0.003296 2.723274
v 2.128502 0.003296 2.979250
v 2.110898 0.003296 3.235225
v 1.597513 0.032351 2.723274
v 1.597513 0.032351 2.540589
v 1.597513 -0.032351 2.723274
v 1.597512 -0.032351 2.540589
v 1.564469 0.033471 2.028638
v 1.564469 -0.033471 2.028638
v 0.501380 0.065638 0.670876
v 0.501380 -0.065638 0.670876
v 1.066451 0.050449 1.215776
v 1.066451 -0.050449 1.215776
v 1.136550 0.047310 1.330191
v 1.519566 0.035893 1.955348
v 1.136550 -0.047310 1.330191
v 1.519566 -0.035893 1.955348
v 1.588052 0.032868 2.211323
v 1.588052 -0.032868 2.211323
v 1.597513 0.032351 2.284614
v 1.597512 -0.032351 2.284614
v 1.564469 0.033206 3.308516
v 1.564469 -0.033206 3.308516
v 1.597513 0.032351 2.467299
v 1.597513 -0.032351 2.467299
v 1.597513 0.032075 3.052540
v 1.573930 0.032896 3.235225
v 1.597513 -0.032075 3.052540
v 1.573930 -0.032896 3.235225
v 1.597513 0.032351 2.796565
v 1.597513 0.032351 2.979250
v 1.597513 -0.032351 2.979250
v 1.597512 -0.032351 2.796565
v 1.381822 0.038047 3.679400
v 1.381822 -0.038047 3.679400
v -2.074306 -0.129032 3.485661
v -2.074306 0.129032 3.485661
v -2.074306 -0.129032 1.448937
v -2.074306 0.129032 1.448937
v -2.074306 -0.129032 1.703527
v -2.074306 -0.129032 1.958118
v -2.074306 -0.129032 2.212708
v -2.074306 -0.129032 2.467299
v -2.074306 -0.129032 2.721889
v -2.074306 -0.129032 2.976480
v -2.074306 -0.129032 3.231070
v -2.074306 0.129032 3.231070
v -2.074306 0.129032 2.976480
v -2.074306 0.129032 2.721889
v -2.074306 0.129032 2.467299
v -2.074306 0.129032 2.212708
v -2.074306 0.129032 1.958118
v -2.074306 0.129032 1.703527
v -0.256445 -0.129032 1.448937
v -0.256445 0.129032 1.448937
v -0.256445 -0.129032 3.485661
v -0.256445 0.129032 3.485661
v -0.256445 0.129032 1.703527
v -0.256445 0.129032 1.958118
v -0.256445 0.129032 2.212708
v -0.256445 0.129032 2.467299
v -0.256445 0.129032 2.721889
v -0.256445 0.129032 2.976480
v -0.256445 0.129032 3.231070
v -0.256445 -0.129032 1.703527
v -0.256445 -0.129032 1.958118
v -0.256445 -0.129032 2.212708
v -0.256445 -0.129032 2.467299
v -0.256445 -0.129032 2.721889
v -0.256445 -0.129032 2.976480
v -0.256445 -0.129032 3.231070
v -0.764330 -0.307236 1.448937
v -0.764330 0.307236 3.485661
v -0.764330 -0.307236 1.703527
v -0.764330 -0.307236 1.958118
v -0.764330 -0.307236 2.212708
v -0.764330 -0.307236 2.467299
v -0.764330 -0.307236 2.721889
v -0.764330 -0.307236 2.976480
v -0.764330 -0.307236 3.231070
v -0.764330 0.307236 1.448937
v -0.764330 -0.307236 3.485661
v -0.764330 0.307236 1.703527
v -0.764330 0.307236 1.958118
v -0.764330 0.307236 2.212708
v -0.764330 0.307236 2.467299
v -0.764330 0.307236 2.721889
v -0.764330 0.307236 2.976480
v -0.764330 0.307236 3.231070
v -1.788788 -0.307236 1.448937
v -1.788788 0.307236 3.485661
v -1.788788 -0.307236 1.703527
v -1.788788 -0.307236 1.958118
v -1.788788 -0.307236 2.212708
v -1.788788 -0.307236 2.467299
v -1.788788 -0.307236 2.721889
v -1.788788 -0.307236 2.976480
v -1.788788 -0.307236 3.231070
v -1.788788 0.307236 1.448937
v -1.788788 -0.307236 3.485661
v -1.788788 0.307236 1.703527
v -1.788788 0.307236 1.958118
v -1.788788 0.307236 2.212708
v -1.788788 0.307236 2.467299
v -1.788788 0.307236 2.721889
v -1.788788 0.307236 2.976480
v -1.788788 0.307236 3.231070
v -1.191999 -0.246279 3.485661
v -1.191999 -0.246279 1.448937
v -0.806944 -0.000000 3.485661
v -0.806944 0.000000 1.448937
v -1.285326 -0.251104 3.485661
v -1.285326 -0.251104 1.448937
v -1.102258 -0.231990 3.485661
v -1.102258 -0.231990 1.448937
v -1.754516 0.048988 3.485660
v -1.754516 0.048988 1.448937
v -1.763708 0.000000 3.485660
v -1.763708 0.000000 1.448937
v -1.468395 -0.231990 3.485661
v -1.468395 -0.231990 1.448937
v -1.378654 -0.246279 3.485661
v -1.378654 -0.246279 1.448937
v -1.754516 -0.048988 3.485660
v -1.754516 -0.048988 1.448937
v -0.947059 -0.177558 3.485661
v -0.947059 -0.177557 1.448937
v -0.816136 -0.048988 3.485661
v -0.816136 -0.048988 1.448937
v -1.019552 -0.208786 3.485661
v -1.019552 -0.208786 1.448937
v -1.727294 -0.096093 3.485660
v -1.727294 -0.096093 1.448937
v -1.683087 -0.139506 3.485660
v -1.683087 -0.139506 1.448937
v -1.551101 -0.208786 3.485661
v -1.551101 -0.208785 1.448937
v -1.623594 -0.177557 3.485660
v -1.623594 -0.177557 1.448937
v -0.816136 0.048988 3.485661
v -0.816136 0.048988 1.448937
v -0.887566 -0.139506 3.485661
v -0.887566 -0.139506 1.448937
v -0.843359 -0.096093 3.485661
v -0.843359 -0.096093 1.448937
v -0.843359 0.096093 3.485661
v -0.843359 0.096093 1.448937
v -0.887566 0.139506 3.485661
v -0.887566 0.139506 1.448937
v -1.727293 0.096094 3.485660
v -1.727293 0.096094 1.448937
v -1.683086 0.139506 3.485660
v -1.683086 0.139506 1.448937
v -0.947059 0.177557 3.485661
v -0.947059 0.177558 1.448937
v -1.551100 0.208786 3.485660
v -1.551100 0.208786 1.448937
v -1.019552 0.208785 3.485660
v -1.019552 0.208786 1.448937
v -1.623593 0.177558 3.485660
v -1.623593 0.177558 1.448937
v -1.468394 0.231990 3.485660
v -1.468394 0.231990 1.448937
v -1.102258 0.231990 3.485660
v -1.102257 0.231990 1.448937
v -1.191999 0.246279 3.485660
v -1.191999 0.246279 1.448937
v -1.378653 0.246279 3.485660
v -1.378653 0.246279 1.448937
v -1.285326 0.251104 3.485660
v -1.285326 0.251104 1.448937
v 1.597513 0.030728 2.721889
v 1.597513 -0.030728 2.721889
v 1.597513 0.030728 2.796565
v 1.597513 -0.030728 2.796565
v 1.597513 0.030728 2.976480
v 1.597513 -0.030728 2.976480
v 1.597513 0.030450 3.052540
v 1.597513 -0.030450 3.052540
v 1.574466 0.031228 3.231070
v 1.574466 -0.031228 3.231070
v 1.564469 0.031479 3.308516
v 1.564469 -0.031479 3.308516
v 1.384486 0.036102 3.673992
v 1.384486 -0.036102 3.673992
v 1.597513 0.030728 2.540589
v 1.597513 -0.030728 2.540589
v 1.597513 0.030728 2.467299
v 1.597513 -0.030728 2.467299
v 1.588231 0.031220 2.212708
v 1.588231 -0.031220 2.212708
v 1.597513 0.030728 2.284614
v 1.597513 -0.030728 2.284614
v 1.564469 0.031809 2.028638
v 1.564469 -0.031809 2.028638
v 1.066451 0.048099 1.215776
v 1.066451 -0.048099 1.215776
v 1.138951 0.045091 1.334111
v 1.138951 -0.045091 1.334111
v 1.521263 0.034070 1.958118
v 1.521263 -0.034070 1.958118
v 0.504953 0.062725 0.674322
v 0.504953 -0.062725 0.674322
vn 0.9673 0.0000 0.2538
vn 0.8753 0.0000 -0.4836
vn 0.9506 0.0000 -0.3103
vn 0.9976 0.0000 -0.0686
vn 1.0000 0.0000 0.0000
vn 0.9976 0.0000 0.0686
vn 0.0548 0.9985 0.0033
vn 0.0546 0.9985 0.0000
vn 0.0547 0.9985 -0.0033
vn 0.0563 0.9983 -0.0175
vn 0.0575 0.9979 -0.0306
vn 0.0565 0.9983 0.0140
vn -0.1140 0.0000 0.9935
vn 0.0546 -0.9985 0.0000
vn -0.8971 0.0000 -0.4418
vn 0.0547 -0.9985 -0.0033
vn 0.0575 -0.9979 -0.0306
vn -0.6941 0.0000 0.7198
vn -1.0000 0.0000 0.0000
vn -0.9918 0.0000 0.1280
vn 0.0548 -0.9985 0.0033
vn -0.8527 0.0000 0.5224
vn 0.0563 -0.9983 -0.0175
vn -0.9918 0.0000 -0.1280
vn 0.0565 -0.9983 0.0140
vn -0.7132 0.0000 -0.7010
vn 0.0000 0.0000 1.0000
vn 0.0542 -0.9985 0.0078
vn -0.5295 0.8483 0.0000
vn 0.0572 -0.9982 -0.0203
vn 0.0550 -0.9984 -0.0114
vn 0.0532 -0.9986 -0.0014
vn 0.0529 -0.9986 0.0000
vn 0.0532 -0.9986 0.0014
vn 0.3311 -0.9436 0.0000
vn 0.0000 0.0000 -1.0000
vn 0.0000 -1.0000 0.0000
vn 0.3311 0.9436 0.0000
vn -0.5295 -0.8483 0.0000
vn 0.0000 1.0000 0.0000
vn -0.9828 0.1844 0.0000
vn -0.5388 0.8424 0.0000
vn -0.7007 0.7135 0.0000
vn 0.9828 -0.1844 -0.0000
vn -0.8658 -0.5004 -0.0000
vn -0.9828 -0.1844 -0.0000
vn -0.5388 -0.8424 -0.0000
vn 0.0516 -0.9987 -0.0000
vn 0.0516 0.9987 0.0000
vn 0.7007 -0.7135 -0.0000
vn -0.0516 0.9987 0.0000
vn 0.1572 -0.9876 -0.0000
vn -0.3956 -0.9184 -0.0000
vn 0.2701 0.9628 0.0000
vn -0.2701 -0.9628 -0.0000
vn -0.3956 0.9184 0.0000
vn 0.3956 -0.9184 -0.0000
vn 0.8658 -0.5004 -0.0000
vn -0.2701 0.9628 0.0000
vn 0.3956 0.9184 0.0000
vn 0.7007 0.7135 0.0000
vn -0.0516 -0.9987 -0.0000
vn -0.7007 -0.7135 -0.0000
vn 0.9828 0.1844 0.0000
vn -0.8658 0.5004 0.0000
vn 0.1572 0.9876 0.0000
vn 0.2701 -0.9628 -0.0000
vn -0.1572 -0.9876 -0.0000
vn -0.1572 0.9876 0.0000
vn 0.8658 0.5004 0.0000
vn 0.5388 -0.8424 -0.0000
vn 0.5388 0.8424 0.0000
vn 0.0529 0.9986 0.0000
vn 0.8527 0.0000 -0.5224
vn 0.0532 0.9986 0.0014
vn 0.9918 0.0000 0.1280
vn 0.0550 0.9984 -0.0114
vn 0.0572 0.9982 -0.0203
vn 0.0542 0.9985 0.0078
vn 0.0532 0.9986 -0.0014
vn 0.8971 0.0000 0.4418
vn 0.6941 -0.0000 -0.7198
vn 0.9918 0.0000 -0.1280
usemtl Material.002
s off
f 5//1 18//1 2//1 1//1
f 3//2 4//2 12//2 11//2
f 11//3 12//3 13//3 10//3
f 10//4 13//4 14//4 9//4
f 9//5 14//5 15//5 8//5
f 8//5 15//5 16//5 7//5
f 7//5 16//5 17//5 6//5
f 6//6 17//6 18//6 5//6
f 17//7 46//7 41//7 42//7 18//7
f 16//8 19//8 45//8 46//8 17//8
f 15//8 39//8 20//8 19//8 16//8
f 14//8 33//8 35//8 39//8 15//8
f 13//9 30//9 23//9 33//9 14//9
f 12//10 29//10 30//10 13//10
f 4//11 25//11 27//11 29//11 12//11
f 18//12 42//12 37//12 49//12 2//12
f 1//13 2//13 49//13 50//13
f 47//14 48//14 21//14 7//14 6//14
f 37//15 38//15 50//15 49//15
f 34//16 24//16 32//16 10//16 9//16
f 31//17 28//17 26//17 3//17 11//17
f 28//18 27//18 25//18 26//18
f 48//19 45//19 19//19 20//19 22//19 21//19
f 43//19 41//19 46//19 45//19 48//19 47//19
f 21//14 22//14 40//14 8//14 7//14
f 40//14 36//14 34//14 9//14 8//14
f 36//20 35//20 33//20 23//20 24//20 34//20
f 44//21 43//21 47//21 6//21 5//21
f 24//22 23//22 30//22 29//22 27//22 28//22 31//22 32//22
f 32//23 31//23 11//23 10//23
f 38//24 37//24 42//24 41//24 43//24 44//24
f 50//25 38//25 44//25 5//25 1//25
f 22//19 20//19 39//19 35//19 36//19 40//19
f 26//26 25//26 4//26 3//26
usemtl Material.003
f 55//19 68//19 54//19 53//19
f 69//26 70//26 217//26 218//26
f 115//27 106//27 52//27 51//27
f 86//28 196//28 198//28 200//28 71//28
f 122//29 62//29 52//29 106//29
f 114//29 54//29 68//29 116//29
f 116//29 68//29 67//29 117//29
f 117//29 67//29 66//29 118//29
f 118//29 66//29 65//29 119//29
f 119//29 65//29 64//29 120//29
f 120//29 64//29 63//29 121//29
f 121//29 63//29 62//29 122//29
f 69//30 218//30 212//30 214//30 80//30
f 80//31 214//31 216//31 81//31
f 81//32 216//32 210//32 206//32 82//32
f 82//33 206//33 208//33 204//33 83//33
f 83//33 204//33 202//33 188//33 84//33
f 84//33 188//33 190//33 192//33 85//33
f 85//34 192//34 194//34 196//34 86//34
f 51//19 52//19 62//19 61//19
f 61//19 62//19 63//19 60//19
f 60//19 63//19 64//19 59//19
f 59//19 64//19 65//19 58//19
f 58//19 65//19 66//19 57//19
f 57//19 66//19 67//19 56//19
f 56//19 67//19 68//19 55//19
f 94//35 85//35 86//35 95//35
f 93//35 84//35 85//35 94//35
f 92//35 83//35 84//35 93//35
f 91//35 82//35 83//35 92//35
f 90//35 81//35 82//35 91//35
f 89//35 80//35 81//35 90//35
f 87//35 69//35 80//35 89//35
f 95//35 86//35 71//35 97//35
f 87//36 96//36 70//36 69//36
f 105//36 114//36 134//36 140//36 148//36 150//36 154//36 152//36 136//36 138//36 128//36 124//36 130//36 146//36 142//36 158//36 160//36 144//36 126//36 96//36 87//36
f 113//37 95//37 97//37 115//37
f 105//37 87//37 89//37 107//37
f 107//37 89//37 90//37 108//37
f 108//37 90//37 91//37 109//37
f 109//37 91//37 92//37 110//37
f 110//37 92//37 93//37 111//37
f 111//37 93//37 94//37 112//37
f 112//37 94//37 95//37 113//37
f 78//38 103//38 104//38 79//38
f 77//38 102//38 103//38 78//38
f 76//38 101//38 102//38 77//38
f 75//38 100//38 101//38 76//38
f 74//38 99//38 100//38 75//38
f 73//38 98//38 99//38 74//38
f 70//38 96//38 98//38 73//38
f 79//38 104//38 88//38 72//38
f 71//27 72//27 88//27 97//27
f 60//39 112//39 113//39 61//39
f 59//39 111//39 112//39 60//39
f 58//39 110//39 111//39 59//39
f 57//39 109//39 110//39 58//39
f 56//39 108//39 109//39 57//39
f 55//39 107//39 108//39 56//39
f 53//39 105//39 107//39 55//39
f 61//39 113//39 115//39 51//39
f 53//36 54//36 114//36 105//36
f 103//40 121//40 122//40 104//40
f 102//40 120//40 121//40 103//40
f 101//40 119//40 120//40 102//40
f 100//40 118//40 119//40 101//40
f 99//40 117//40 118//40 100//40
f 98//40 116//40 117//40 99//40
f 96//40 114//40 116//40 98//40
f 104//40 122//40 106//40 88//40
f 97//27 88//27 106//27 133//27 131//27 165//27 167//27 175//27 171//27 177//27 183//27 185//27 181//27 179//27 173//27 169//27 163//27 161//27 155//27 125//27
f 144//41 143//41 125//41 126//41
f 142//42 141//42 157//42 158//42
f 158//43 157//43 159//43 160//43
f 132//44 131//44 133//44 134//44
f 156//45 155//45 161//45 162//45
f 96//36 126//36 156//36 162//36 164//36 170//36 174//36 180//36 182//36 186//36 184//36 178//36 172//36 176//36 168//36 166//36 132//36 134//36 114//36
f 126//46 125//46 155//46 156//46
f 164//47 163//47 169//47 170//47
f 186//48 185//48 183//48 184//48
f 138//49 137//49 127//49 128//49
f 168//50 167//50 165//50 166//50
f 128//51 127//51 123//51 124//51
f 184//52 183//52 177//52 178//52
f 170//53 169//53 173//53 174//53
f 152//54 151//54 135//54 136//54
f 174//55 173//55 179//55 180//55
f 146//56 145//56 141//56 142//56
f 172//57 171//57 175//57 176//57
f 125//27 143//27 159//27 157//27 141//27 145//27 129//27 123//27 127//27 137//27 135//27 151//27 153//27 149//27 147//27 139//27 133//27 106//27 115//27 97//27
f 166//58 165//58 131//58 132//58
f 130//59 129//59 145//59 146//59
f 154//60 153//60 151//60 152//60
f 148//61 147//61 149//61 150//61
f 182//62 181//62 185//62 186//62
f 162//63 161//63 163//63 164//63
f 134//64 133//64 139//64 140//64
f 160//65 159//65 143//65 144//65
f 136//66 135//66 137//66 138//66
f 178//67 177//67 171//67 172//67
f 180//68 179//68 181//68 182//68
f 124//69 123//69 129//69 130//69
f 140//70 139//70 147//70 148//70
f 176//71 175//71 167//71 168//71
f 150//72 149//72 153//72 154//72
f 203//73 207//73 205//73 75//73 76//73
f 200//13 199//13 72//13 71//13
f 212//74 211//74 213//74 215//74 209//74 210//74 216//74 214//74
f 195//75 193//75 191//75 78//75 79//75
f 194//76 193//76 195//76 197//76 198//76 196//76
f 215//77 213//77 73//77 74//77
f 213//78 211//78 217//78 70//78 73//78
f 199//79 197//79 195//79 79//79 72//79
f 205//80 209//80 215//80 74//80 75//80
f 202//5 201//5 187//5 189//5 190//5 188//5
f 187//73 201//73 203//73 76//73 77//73
f 191//73 189//73 187//73 77//73 78//73
f 198//81 197//81 199//81 200//81
f 211//82 212//82 218//82 217//82
f 208//5 207//5 203//5 201//5 202//5 204//5
f 210//83 209//83 205//83 207//83 208//83 206//83
f 190//5 189//5 191//5 193//5 194//5 192//5
o Cylinder
v -1.283740 0.246577 -7.005493
v -1.283740 0.246576 3.684532
v -1.192095 0.241839 -7.005493
v -1.192095 0.241838 3.684532
v -1.103972 0.227807 -7.005493
v -1.103972 0.227807 3.684532
v -1.022757 0.205021 -7.005493
v -1.022757 0.205021 3.684532
v -0.951572 0.174356 -7.005493
v -0.951572 0.174356 3.684532
v -0.893152 0.136991 -7.005493
v -0.893152 0.136990 3.684532
v -0.849742 0.094361 -7.005493
v -0.849742 0.094361 3.684532
v -0.823010 0.048105 -7.005493
v -0.823010 0.048104 3.684532
v -0.813983 0.000000 -7.005493
v -0.813983 -0.000000 3.684532
v -0.823010 -0.048104 -7.005493
v -0.823010 -0.048105 3.684532
v -0.849742 -0.094361 -7.005493
v -0.849742 -0.094361 3.684532
v -0.893152 -0.136990 -7.005493
v -0.893152 -0.136991 3.684532
v -0.951572 -0.174356 -7.005493
v -0.951572 -0.174356 3.684532
v -1.022757 -0.205021 -7.005493
v -1.022757 -0.205021 3.684532
v -1.103972 -0.227807 -7.005493
v -1.103972 -0.227807 3.684532
v -1.192095 -0.241838 -7.005493
v -1.192095 -0.241839 3.684532
v -1.283740 -0.246576 -7.005493
v -1.283740 -0.246577 3.684532
v -1.375385 -0.241838 -7.005493
v -1.375385 -0.241839 3.684532
v -1.463508 -0.227807 -7.005493
v -1.463508 -0.227807 3.684532
v -1.544723 -0.205021 -7.005493
v -1.544723 -0.205021 3.684532
v -1.615908 -0.174356 -7.005493
v -1.615908 -0.174356 3.684532
v -1.674328 -0.136990 -7.005493
v -1.674328 -0.136991 3.684532
v -1.717738 -0.094360 -7.005493
v -1.717738 -0.094361 3.684532
v -1.744470 -0.048104 -7.005493
v -1.744470 -0.048105 3.684532
v -1.753496 0.000000 -7.005493
v -1.753496 0.000000 3.684532
v -1.744470 0.048105 -7.005493
v -1.744470 0.048105 3.684532
v -1.717738 0.094361 -7.005493
v -1.717738 0.094361 3.684532
v -1.674328 0.136991 -7.005493
v -1.674328 0.136991 3.684532
v -1.615907 0.174356 -7.005493
v -1.615907 0.174356 3.684532
v -1.544722 0.205021 -7.005493
v -1.544722 0.205021 3.684532
v -1.463507 0.227807 -7.005493
v -1.463507 0.227807 3.684532
v -1.375384 0.241839 -7.005493
v -1.375384 0.241839 3.684532
vn 0.0000 0.7183 -0.6956
vn 0.0000 0.7183 0.6956
vn 0.0751 0.7147 0.6953
vn 0.0751 0.7147 -0.6953
vn 0.1540 0.7030 0.6943
vn 0.1540 0.7030 -0.6943
vn 0.2407 0.6801 0.6924
vn 0.2407 0.6801 -0.6924
vn 0.3396 0.6399 0.6893
vn 0.3396 0.6399 -0.6893
vn 0.4542 0.5701 0.6845
vn 0.4542 0.5701 -0.6845
vn 0.5810 0.4502 0.6780
vn 0.5810 0.4502 -0.6780
vn 0.6952 0.2575 0.6711
vn 0.6952 0.2575 -0.6711
vn 0.7443 0.0000 0.6678
vn 0.7443 0.0000 -0.6678
vn 0.6952 -0.2575 0.6711
vn 0.6952 -0.2575 -0.6711
vn 0.5810 -0.4502 0.6780
vn 0.5810 -0.4502 -0.6780
vn 0.4542 -0.5701 0.6845
vn 0.4542 -0.5701 -0.6845
vn 0.3396 -0.6399 0.6893
vn 0.3396 -0.6399 -0.6893
vn 0.2407 -0.6801 0.6924
vn 0.2407 -0.6801 -0.6924
vn 0.1540 -0.7030 0.6943
vn 0.1540 -0.7030 -0.6943
vn 0.0751 -0.7147 0.6953
vn 0.0751 -0.7147 -0.6953
vn 0.0000 -0.7183 0.6956
vn 0.0000 -0.7183 -0.6956
vn -0.0751 -0.7147 0.6953
vn -0.0751 -0.7147 -0.6953
vn -0.1540 -0.7030 0.6943
vn -0.1540 -0.7030 -0.6943
vn -0.2407 -0.6801 0.6924
vn -0.2407 -0.6801 -0.6924
vn -0.3396 -0.6399 0.6893
vn -0.3396 -0.6399 -0.6893
vn -0.4542 -0.5701 0.6845
vn -0.4542 -0.5701 -0.6845
vn -0.5810 -0.4502 0.6780
vn -0.5810 -0.4502 -0.6780
vn -0.6952 -0.2575 0.6711
vn -0.6952 -0.2575 -0.6711
vn -0.7443 0.0000 0.6678
vn -0.7443 0.0000 -0.6678
vn -0.6952 0.2575 0.6711
vn -0.6952 0.2575 -0.6711
vn -0.5810 0.4502 0.6780
vn -0.5810 0.4502 -0.6780
vn -0.4542 0.5701 0.6845
vn -0.4542 0.5701 -0.6845
vn -0.3396 0.6399 0.6893
vn -0.3396 0.6399 -0.6893
vn -0.2407 0.6801 0.6924
vn -0.2407 0.6801 -0.6924
vn -0.1540 0.7030 0.6943
vn -0.1540 0.7030 -0.6943
vn -0.0751 0.7147 0.6953
vn -0.0751 0.7147 -0.6953
usemtl Material.001
s 1
f 219//84 220//85 222//86 221//87
f 221//87 222//86 224//88 223//89
f 223//89 224//88 226//90 225//91
f 225//91 226//90 228//92 227//93
f 227//93 228//92 230//94 229//95
f 229//95 230//94 232//96 231//97
f 231//97 232//96 234//98 233//99
f 233//99 234//98 236//100 235//101
f 235//101 236//100 238//102 237//103
f 237//103 238//102 240//104 239//105
f 239//105 240//104 242//106 241//107
f 241//107 242//106 244//108 243//109
f 243//109 244//108 246//110 245//111
f 245//111 246//110 248//112 247//113
f 247//113 248//112 250//114 249//115
f 249//115 250//114 252//116 251//117
f 251//117 252//116 254//118 253//119
f 253//119 254//118 256//120 255//121
f 255//121 256//120 258//122 257//123
f 257//123 258//122 260//124 259//125
f 259//125 260//124 262//126 261//127
f 261//127 262//126 264//128 263//129
f 263//129 264//128 266//130 265//131
f 265//131 266//130 268//132 267//133
f 267//133 268//132 270//134 269//135
f 269//135 270//134 272//136 271//137
f 271//137 272//136 274//138 273//139
f 273//139 274//138 276//140 275//141
f 275//141 276//140 278//142 277//143
f 277//143 278//142 280//144 279//145
f 222//86 220//85 282//146 280//144 278//142 276//140 274//138 272//136 270//134 268//132 266//130 264//128 262//126 260//124 258//122 256//120 254//118 252//116 250//114 248//112 246//110 244//108 242//106 240//104 238//102 236//100 234//98 232//96 230//94 228//92 226//90 224//88
f 279//145 280//144 282//146 281//147
f 281//147 282//146 220//85 219//84
f 219//84 221//87 223//89 225//91 227//93 229//95 231//97 233//99 235//101 237//103 239//105 241//107 243//109 245//111 247//113 249//115 251//117 253//119 255//121 257//123 259//125 261//127 263//129 265//131 267//133 269//135 271//137 273//139 275//141 277//143 279//145 281//147
